<?xml version="1.0" encoding="UTF-8"?>
<svg id="Calque_2" data-name="Calque 2" xmlns="http://www.w3.org/2000/svg" viewBox="0 0 51.89 65.66">
  <defs>
    <style>
      .cls-1 {
        fill: #f15d46;
      }

      .cls-1, .cls-2, .cls-3, .cls-4 {
        stroke-width: 0px;
      }

      .cls-2 {
        fill: #fff;
      }

      .cls-3 {
        fill: #fabd29;
      }

      .cls-4 {
        fill: #e3e4e7;
      }
    </style>
  </defs>
  <g id="Calque_1-2" data-name="Calque 1">
    <g id="Feuille_vers_feuille" data-name="Feuille vers feuille">
      <g id="Feuille">
        <g>
          <polygon class="cls-3" points="43.91 0 43.91 .14 46.98 3.07 43.91 0"/>
          <g>
            <polygon class="cls-2" points="43.91 .14 43.85 .08 12.57 .08 12.57 51.54 51.89 51.54 51.89 7.98 43.91 7.98 43.91 .14"/>
            <polygon class="cls-3" points="43.91 .14 43.91 7.98 51.89 7.98 46.98 3.07 43.91 .14"/>
          </g>
        </g>
        <g>
          <rect class="cls-4" x="18.32" y="11.64" width="27.83" height="4.63"/>
          <rect class="cls-4" x="18.32" y="18.97" width="27.83" height="4.63"/>
          <rect class="cls-4" x="18.32" y="26.96" width="27.83" height="4.63"/>
          <rect class="cls-4" x="18.32" y="34.3" width="27.83" height="4.63"/>
        </g>
      </g>
      <g id="Feuille-2" data-name="Feuille">
        <g>
          <polygon class="cls-3" points="31.34 14.11 31.34 14.25 34.41 17.18 31.34 14.11"/>
          <g>
            <polygon class="cls-2" points="31.34 14.25 31.28 14.19 0 14.19 0 65.66 39.32 65.66 39.32 22.1 31.34 22.1 31.34 14.25"/>
            <polygon class="cls-3" points="31.34 14.25 31.34 22.1 39.32 22.1 34.41 17.18 31.34 14.25"/>
          </g>
        </g>
        <g>
          <rect class="cls-4" x="5.74" y="25.75" width="27.83" height="4.63"/>
          <rect class="cls-4" x="5.74" y="33.08" width="27.83" height="4.63"/>
          <rect class="cls-4" x="5.74" y="41.08" width="27.83" height="4.63"/>
          <rect class="cls-4" x="5.74" y="48.41" width="27.83" height="4.63"/>
        </g>
      </g>
      <g>
        <path class="cls-1" d="m30.56,56.53c-.55,0-1.08-.05-1.61-.12v4.26c.53.07,1.07.12,1.61.12,6.94,0,12.57-5.63,12.57-12.57,0-.73-.08-1.44-.19-2.13-1.01,5.93-6.16,10.44-12.38,10.44Z"/>
        <polygon class="cls-1" points="28.94 62.47 23.36 58.39 28.94 54.32 28.94 62.47"/>
      </g>
    </g>
  </g>
</svg>