<?xml version="1.0" encoding="UTF-8"?>
<svg id="Calque_2" data-name="Calque 2" xmlns="http://www.w3.org/2000/svg" viewBox="0 0 39.83 60.68">
  <defs>
    <style>
      .cls-1 {
        fill: #727ac8;
      }

      .cls-1, .cls-2, .cls-3, .cls-4 {
        stroke-width: 0px;
      }

      .cls-2 {
        fill: #463f76;
      }

      .cls-3 {
        fill: #0d96e6;
      }

      .cls-4 {
        fill: #edba2e;
      }
    </style>
  </defs>
  <g id="Calque_1-2" data-name="Calque 1">
    <g id="Poubelle">
      <g id="Couvercle">
        <path class="cls-1" d="m26.72,1.12L14.66,0c-1.09-.1-2.05.7-2.15,1.78l-.54,5.89,15.99,1.47.54-5.89c.1-1.08-.7-2.05-1.78-2.15Zm-1.45,7.65l-10.88-1,.34-3.69c.1-1.09,1.06-1.88,2.15-1.78l6.95.64c1.08.1,1.88,1.07,1.78,2.15l-.34,3.69Z"/>
        <path class="cls-2" d="m2.15,8.29h35.71c1.09,0,1.97.88,1.97,1.97v3.64H.17v-3.64c0-1.09.88-1.97,1.97-1.97Z" transform="translate(1.1 -1.79) rotate(5.26)"/>
      </g>
      <g id="Poubelle-2" data-name="Poubelle">
        <rect class="cls-3" x="27.31" y="17.32" width="5.36" height="3.28"/>
        <polygon class="cls-4" points="3.99 20.59 9.52 14.81 15.06 20.59 3.99 20.59"/>
        <g>
          <path class="cls-2" d="m2.56,20.59h34.72v37.53c0,1.41-1.14,2.55-2.55,2.55H5.11c-1.41,0-2.55-1.14-2.55-2.55V20.59h0Z"/>
          <g>
            <g>
              <rect class="cls-1" x="9.22" y="23.59" width="3.02" height="3.02" rx=".76" ry=".76"/>
              <rect class="cls-1" x="15.34" y="23.59" width="3.02" height="3.02" rx=".76" ry=".76"/>
              <rect class="cls-1" x="21.47" y="23.59" width="3.02" height="3.02" rx=".76" ry=".76"/>
              <rect class="cls-1" x="27.6" y="23.59" width="3.02" height="3.02" rx=".76" ry=".76"/>
            </g>
            <g>
              <rect class="cls-1" x="30.88" y="26.7" width="3.02" height="3.02" rx=".76" ry=".76"/>
              <rect class="cls-1" x="24.64" y="26.7" width="3.02" height="3.02" rx=".76" ry=".76"/>
              <rect class="cls-1" x="18.41" y="26.7" width="3.02" height="3.02" rx=".76" ry=".76"/>
              <rect class="cls-1" x="12.17" y="26.7" width="3.02" height="3.02" rx=".76" ry=".76"/>
              <rect class="cls-1" x="5.94" y="26.7" width="3.02" height="3.02" rx=".76" ry=".76"/>
            </g>
            <g>
              <rect class="cls-1" x="30.88" y="32.91" width="3.02" height="3.02" rx=".76" ry=".76"/>
              <rect class="cls-1" x="24.64" y="32.91" width="3.02" height="3.02" rx=".76" ry=".76"/>
              <rect class="cls-1" x="18.41" y="32.91" width="3.02" height="3.02" rx=".76" ry=".76"/>
              <rect class="cls-1" x="12.17" y="32.91" width="3.02" height="3.02" rx=".76" ry=".76"/>
              <rect class="cls-1" x="5.94" y="32.91" width="3.02" height="3.02" rx=".76" ry=".76"/>
            </g>
            <g>
              <rect class="cls-1" x="30.88" y="39.13" width="3.02" height="3.02" rx=".76" ry=".76"/>
              <rect class="cls-1" x="24.64" y="39.13" width="3.02" height="3.02" rx=".76" ry=".76"/>
              <rect class="cls-1" x="18.41" y="39.13" width="3.02" height="3.02" rx=".76" ry=".76"/>
              <rect class="cls-1" x="12.17" y="39.13" width="3.02" height="3.02" rx=".76" ry=".76"/>
              <rect class="cls-1" x="5.94" y="39.13" width="3.02" height="3.02" rx=".76" ry=".76"/>
            </g>
            <g>
              <rect class="cls-1" x="30.88" y="45.34" width="3.02" height="3.02" rx=".76" ry=".76"/>
              <rect class="cls-1" x="24.64" y="45.34" width="3.02" height="3.02" rx=".76" ry=".76"/>
              <rect class="cls-1" x="18.41" y="45.34" width="3.02" height="3.02" rx=".76" ry=".76"/>
              <rect class="cls-1" x="12.17" y="45.34" width="3.02" height="3.02" rx=".76" ry=".76"/>
              <rect class="cls-1" x="5.94" y="45.34" width="3.02" height="3.02" rx=".76" ry=".76"/>
            </g>
            <g>
              <rect class="cls-1" x="30.88" y="51.55" width="3.02" height="3.02" rx=".76" ry=".76"/>
              <rect class="cls-1" x="24.64" y="51.55" width="3.02" height="3.02" rx=".76" ry=".76"/>
              <rect class="cls-1" x="18.41" y="51.55" width="3.02" height="3.02" rx=".76" ry=".76"/>
              <rect class="cls-1" x="12.17" y="51.55" width="3.02" height="3.02" rx=".76" ry=".76"/>
              <rect class="cls-1" x="5.94" y="51.55" width="3.02" height="3.02" rx=".76" ry=".76"/>
            </g>
            <g>
              <rect class="cls-1" x="9.22" y="29.81" width="3.02" height="3.02" rx=".76" ry=".76"/>
              <rect class="cls-1" x="15.34" y="29.81" width="3.02" height="3.02" rx=".76" ry=".76"/>
              <rect class="cls-1" x="21.47" y="29.81" width="3.02" height="3.02" rx=".76" ry=".76"/>
              <rect class="cls-1" x="27.6" y="29.81" width="3.02" height="3.02" rx=".76" ry=".76"/>
            </g>
            <g>
              <rect class="cls-1" x="9.22" y="36.02" width="3.02" height="3.02" rx=".76" ry=".76"/>
              <rect class="cls-1" x="15.34" y="36.02" width="3.02" height="3.02" rx=".76" ry=".76"/>
              <rect class="cls-1" x="21.47" y="36.02" width="3.02" height="3.02" rx=".76" ry=".76"/>
              <rect class="cls-1" x="27.6" y="36.02" width="3.02" height="3.02" rx=".76" ry=".76"/>
            </g>
            <g>
              <rect class="cls-1" x="9.22" y="42.23" width="3.02" height="3.02" rx=".76" ry=".76"/>
              <rect class="cls-1" x="15.34" y="42.23" width="3.02" height="3.02" rx=".76" ry=".76"/>
              <rect class="cls-1" x="21.47" y="42.23" width="3.02" height="3.02" rx=".76" ry=".76"/>
              <rect class="cls-1" x="27.6" y="42.23" width="3.02" height="3.02" rx=".76" ry=".76"/>
            </g>
            <g>
              <rect class="cls-1" x="9.22" y="48.45" width="3.02" height="3.02" rx=".76" ry=".76"/>
              <rect class="cls-1" x="15.34" y="48.45" width="3.02" height="3.02" rx=".76" ry=".76"/>
              <rect class="cls-1" x="21.47" y="48.45" width="3.02" height="3.02" rx=".76" ry=".76"/>
              <rect class="cls-1" x="27.6" y="48.45" width="3.02" height="3.02" rx=".76" ry=".76"/>
            </g>
            <g>
              <rect class="cls-1" x="9.22" y="54.66" width="3.02" height="3.02" rx=".76" ry=".76"/>
              <rect class="cls-1" x="15.34" y="54.66" width="3.02" height="3.02" rx=".76" ry=".76"/>
              <rect class="cls-1" x="21.47" y="54.66" width="3.02" height="3.02" rx=".76" ry=".76"/>
              <rect class="cls-1" x="27.6" y="54.66" width="3.02" height="3.02" rx=".76" ry=".76"/>
            </g>
          </g>
        </g>
      </g>
    </g>
  </g>
</svg>