<?xml version="1.0" encoding="UTF-8"?>
<svg id="Calque_2" data-name="Calque 2" xmlns="http://www.w3.org/2000/svg" viewBox="0 0 95.9 75.46">
  <defs>
    <style>
      .cls-1 {
        fill: #bbebea;
      }

      .cls-1, .cls-2, .cls-3, .cls-4, .cls-5, .cls-6, .cls-7, .cls-8, .cls-9, .cls-10, .cls-11, .cls-12, .cls-13 {
        stroke-width: 0px;
      }

      .cls-2 {
        fill: #f15737;
      }

      .cls-3 {
        fill: #463f76;
      }

      .cls-4 {
        fill: #c8c8d3;
      }

      .cls-5 {
        fill: #423a76;
      }

      .cls-6 {
        fill: #fbcd5d;
      }

      .cls-7 {
        fill: #e3be36;
      }

      .cls-8 {
        fill: #fff;
      }

      .cls-9 {
        fill: #fffefd;
      }

      .cls-10 {
        fill: #ededef;
      }

      .cls-11 {
        fill: #fff7e9;
      }

      .cls-12 {
        fill: #a7a6bb;
      }

      .cls-13 {
        fill: #41d7cc;
      }

      .cls-14, .cls-15 {
        fill: none;
        stroke: #9896b0;
        stroke-miterlimit: 10;
      }

      .cls-15 {
        stroke-width: 2px;
      }
    </style>
  </defs>
  <g id="Calque_1-2" data-name="Calque 1">
    <g id="Catégories">
      <g id="Crayon">
        <g>
          <rect class="cls-7" x="55.06" y="38.92" width="1.85" height="68.85" transform="translate(129.32 17.36) rotate(90)"/>
          <rect class="cls-6" x="55.2" y="37.21" width="1.56" height="68.85" transform="translate(127.62 15.65) rotate(90)"/>
        </g>
        <rect class="cls-11" x="90.34" y="70.85" width="2" height="3.41"/>
        <rect class="cls-5" x="92.27" y="70.85" width="2.61" height="3.41"/>
        <g>
          <path class="cls-9" d="m21.56,70.85s-.01,0-2.47,1.02v1.39l2.47,1v-3.41Z"/>
          <path class="cls-3" d="m17.38,72.57l1.7.69v-1.39c-.47.2-1.03.42-1.7.7Z"/>
        </g>
      </g>
      <g id="Feuille_avec_graph" data-name="Feuille avec graph">
        <g id="Feuille">
          <path class="cls-8" d="m16.37,8.94l79.52.64v45.96s-1.39,6.89-5.48,6.89H16.37V8.94Z"/>
          <path class="cls-3" d="m87.73,0s8.17,1.02,8.17,6.51v45.96s-1.4-6.51-8.17-6.13V0Z"/>
        </g>
        <g id="Arborescence">
          <line class="cls-14" x1="31.38" y1="19.88" x2="31.38" y2="24.13"/>
          <line class="cls-14" x1="41.4" y1="26.69" x2="41.4" y2="42.9"/>
          <line class="cls-15" x1="63.36" y1="26.69" x2="63.36" y2="47.11"/>
          <line class="cls-14" x1="77.32" y1="41.45" x2="77.32" y2="47.11"/>
          <line class="cls-15" x1="72.55" y1="37.35" x2="67.87" y2="37.35"/>
          <line class="cls-15" x1="37.11" y1="48.39" x2="30.94" y2="48.39"/>
          <g>
            <g>
              <rect class="cls-5" x="25.83" y="17.16" width="10.72" height="3.22"/>
              <rect class="cls-4" x="27.7" y="18.25" width="6.99" height="1.05"/>
            </g>
            <g>
              <g>
                <rect class="cls-13" x="25.83" y="24.13" width="10.72" height="3.22"/>
                <rect class="cls-1" x="27.7" y="25.22" width="6.99" height="1.05"/>
              </g>
              <g>
                <rect class="cls-13" x="36.55" y="24.13" width="10.72" height="3.22"/>
                <rect class="cls-1" x="38.42" y="25.22" width="6.99" height="1.05"/>
              </g>
              <g>
                <rect class="cls-5" x="58" y="24.13" width="10.72" height="3.22"/>
                <rect class="cls-4" x="59.87" y="25.22" width="6.99" height="1.05"/>
              </g>
              <g>
                <rect class="cls-13" x="68.72" y="24.13" width="10.72" height="3.22"/>
                <rect class="cls-1" x="70.59" y="25.22" width="6.99" height="1.05"/>
              </g>
            </g>
            <rect class="cls-2" x="36.55" y="31.21" width="10.72" height="8.15"/>
            <rect class="cls-2" x="20.91" y="46.15" width="10.72" height="4.09"/>
            <g>
              <rect class="cls-13" x="58" y="31.21" width="10.72" height="10.95"/>
              <g>
                <rect class="cls-1" x="59.23" y="39.3" width="5.71" height="1.05"/>
                <rect class="cls-1" x="59.23" y="36.27" width="8.26" height="1.05"/>
                <g>
                  <rect class="cls-1" x="63.05" y="33.25" width="4.44" height="1.05"/>
                  <rect class="cls-1" x="59.23" y="33.25" width="2.38" height="1.05"/>
                </g>
              </g>
            </g>
            <g>
              <rect class="cls-3" x="36.55" y="42.15" width="10.72" height="12.09"/>
              <g>
                <rect class="cls-10" x="37.79" y="50.69" width="5.71" height="1.05"/>
                <rect class="cls-10" x="37.79" y="47.67" width="8.26" height="1.05"/>
                <g>
                  <rect class="cls-10" x="41.6" y="44.65" width="4.44" height="1.05"/>
                  <rect class="cls-10" x="37.79" y="44.65" width="2.38" height="1.05"/>
                </g>
              </g>
            </g>
            <g>
              <rect class="cls-3" x="71.96" y="31.32" width="10.72" height="11.02"/>
              <g>
                <rect class="cls-10" x="73.19" y="39.32" width="5.71" height="1.05"/>
                <rect class="cls-10" x="73.19" y="36.3" width="8.26" height="1.05"/>
                <g>
                  <rect class="cls-10" x="77" y="33.28" width="4.44" height="1.05"/>
                  <rect class="cls-10" x="73.19" y="33.28" width="2.38" height="1.05"/>
                </g>
              </g>
            </g>
            <rect class="cls-2" x="71.96" y="46.16" width="10.72" height="8.31"/>
            <g>
              <rect class="cls-13" x="58" y="46.5" width="10.72" height="3.22"/>
              <rect class="cls-1" x="59.87" y="47.59" width="6.99" height="1.05"/>
            </g>
            <g>
              <rect class="cls-13" x="47.28" y="24.13" width="10.72" height="3.22"/>
              <rect class="cls-1" x="49.14" y="25.22" width="6.99" height="1.05"/>
            </g>
          </g>
        </g>
      </g>
      <g id="Règle">
        <rect class="cls-3" y="9.25" width="9.49" height="66.21"/>
        <g>
          <g>
            <rect class="cls-12" y="10.87" width="3.99" height=".98"/>
            <rect class="cls-12" y="13.88" width="2" height=".98"/>
            <rect class="cls-12" y="17.9" width="2" height=".98"/>
            <rect class="cls-12" y="15.89" width="3.01" height=".98"/>
          </g>
          <g>
            <rect class="cls-12" y="20.03" width="3.99" height=".98"/>
            <rect class="cls-12" y="23.04" width="2" height=".98"/>
            <rect class="cls-12" y="27.06" width="2" height=".98"/>
            <rect class="cls-12" y="25.05" width="3.01" height=".98"/>
          </g>
          <g>
            <rect class="cls-12" y="29.19" width="3.99" height=".98"/>
            <rect class="cls-12" y="32.2" width="2" height=".98"/>
            <rect class="cls-12" y="36.22" width="2" height=".98"/>
            <rect class="cls-12" y="34.21" width="3.01" height=".98"/>
          </g>
          <g>
            <rect class="cls-12" y="38.35" width="3.99" height=".98"/>
            <rect class="cls-12" y="41.36" width="2" height=".98"/>
            <rect class="cls-12" y="45.38" width="2" height=".98"/>
            <rect class="cls-12" y="43.37" width="3.01" height=".98"/>
          </g>
          <g>
            <rect class="cls-12" y="47.51" width="3.99" height=".98"/>
            <rect class="cls-12" y="50.52" width="2" height=".98"/>
            <rect class="cls-12" y="54.54" width="2" height=".98"/>
            <rect class="cls-12" y="52.53" width="3.01" height=".98"/>
          </g>
          <g>
            <rect class="cls-12" y="56.67" width="3.99" height=".98"/>
            <rect class="cls-12" y="59.67" width="2" height=".98"/>
            <rect class="cls-12" y="63.7" width="2" height=".98"/>
            <rect class="cls-12" y="61.68" width="3.01" height=".98"/>
          </g>
          <g>
            <rect class="cls-12" y="65.82" width="3.99" height=".98"/>
            <rect class="cls-12" y="68.83" width="2" height=".98"/>
            <rect class="cls-12" y="72.85" width="2" height=".98"/>
            <rect class="cls-12" y="70.84" width="3.01" height=".98"/>
          </g>
        </g>
      </g>
    </g>
  </g>
</svg>