<?xml version="1.0" encoding="UTF-8"?>
<svg id="Calque_2" data-name="Calque 2" xmlns="http://www.w3.org/2000/svg" viewBox="0 0 110.98 110.98">
  <defs>
    <style>
      .cls-1 {
        fill: #463f76;
      }

      .cls-1, .cls-2, .cls-3 {
        stroke-width: 0px;
      }

      .cls-2 {
        fill: #3c6;
      }

      .cls-3 {
        fill: #2d3c5d;
        opacity: .5;
      }
    </style>
  </defs>
  <g id="Calque_1-2" data-name="Calque 1">
    <g>
      <g id="Terre">
        <path class="cls-1" d="m96.03,47.41c-.38-6.89,6.23-9.19,6.23-9.19,0,0,2.45.13,1.69-1.92-5.47-3.68-2.96-8.53-1.58-10.48-4.15-6.54-9.61-12.15-16.04-16.46-3.14.89-9.56,2.99-11.28,5.66-3.83-2.64-4.51-6.47-4.51-6.47,0,0-1.53-2.94-.42-6.59C65.61.73,60.88.06,55.99.01l.22,1.44,8.81,8.43s-.51,2.55-4.21,2.3c-5.74-6.77-9.7-7.91-12-8.89-2.04-.98-10.98,2.13-13.91,3.53-2.55,1.4-1.66,1.4,1.66,2.04,3.57-1.28,11.62-2.17,11.62-2.17l.51,1.79s-3.96,4.85-5.11,8.04c-.89,2.3,6.13,4.85,10.34,4.72,3.06-4.34,3.06-7.4,3.06-7.4l9.57,5.11s1.91.51,2.17,3.06c-11.74,12.38-11.62,13.02-13.92,15.45-1.92,3.57.52,5.23.52,5.23l-.52,2.43s-2.42-1.66-3.95-3.45c-1.15-2.04-5.87,0-5.87,0,0,0-.13,1.15-3.19,3.06,0,3.57,2.43,3.32,4.6,4.47,4.21-.51,6.64,3.7,7.66,5.98-.38,1.9-.38,1.55-2.55,1.04-1.28-2.55-4.09-4.6-4.09-4.6,0,0-4.21.89-8.17-.64-2.68-4.6-6-8.68-9.32-9.96-5.87-2.68-8.43-9.83-8.43-9.83,0,0-1.96-9.66-6.11-14.02C5.86,27.14,0,40.63,0,55.49c0,30.65,24.84,55.49,55.49,55.49s55.49-24.84,55.49-55.49c0-.13,0-.26,0-.39-.86.53-2.52,1.29-5.62,2.01-6.49-.26-8.94-2.81-9.32-9.7Zm-13.91,25.28c-6.51,9.45-13.4,16.21-17.36,20.94-4.21,3.45.89,8.04.89,8.04,0,0,1.02,6.13-4.09,1.53s.51-20.94.51-20.94c0,0,2.3-7.79-2.81-10.21-5.11-2.43-3.83-5.62-3.83-5.62,0,0-2.04-5.62,1.15-8.81,3.19-3.19,10.85-4.6,19.28,4.4,4.47.45,12.77,1.21,6.26,10.66Z"/>
        <path class="cls-2" d="m75.86,62.02c-8.43-9-16.09-7.6-19.28-4.4-3.19,3.19-1.15,8.81-1.15,8.81,0,0-1.28,3.19,3.83,5.62,5.11,2.43,2.81,10.21,2.81,10.21,0,0-5.62,16.34-.51,20.94s4.09-1.53,4.09-1.53c0,0-5.11-4.6-.89-8.04,3.96-4.72,10.85-11.49,17.36-20.94,6.51-9.45-1.79-10.21-6.26-10.66Z"/>
        <path class="cls-2" d="m103.95,36.3c.77,2.04-1.69,1.92-1.69,1.92,0,0-6.61,2.3-6.23,9.19s2.83,9.44,9.32,9.7c3.09-.72,4.75-1.48,5.62-2.01-.07-10.77-3.22-20.8-8.6-29.29-1.38,1.96-3.89,6.8,1.58,10.48Z"/>
        <path class="cls-2" d="m70.55,8.56s.68,3.83,4.51,6.47c1.72-2.67,8.14-4.77,11.28-5.66-4.91-3.29-10.37-5.8-16.21-7.4-1.1,3.65.42,6.59.42,6.59Z"/>
        <path class="cls-2" d="m29.91,41.02c3.32,1.28,6.64,5.36,9.32,9.96,3.96,1.53,8.17.64,8.17.64,0,0,2.81,2.04,4.09,4.6,2.17.51,2.17.86,2.55-1.04-1.02-2.28-3.45-6.5-7.66-5.98-2.17-1.15-4.6-.89-4.6-4.47,3.06-1.91,3.19-3.06,3.19-3.06,0,0,4.72-2.04,5.87,0,1.53,1.79,3.95,3.45,3.95,3.45l.52-2.43s-2.44-1.66-.52-5.23c2.3-2.43,2.18-3.06,13.92-15.45-.26-2.55-2.17-3.06-2.17-3.06l-9.57-5.11s0,3.06-3.06,7.4c-4.21.13-11.23-2.43-10.34-4.72,1.15-3.19,5.11-8.04,5.11-8.04l-.51-1.79s-8.04.89-11.62,2.17c-3.32-.64-4.21-.64-1.66-2.04,2.94-1.4,11.87-4.51,13.91-3.53,2.3.98,6.26,2.13,12,8.89,3.7.26,4.21-2.3,4.21-2.3L56.2,1.45l-.22-1.44c-.17,0-.33-.01-.5-.01-15.78,0-30.01,6.6-40.12,17.18,4.15,4.36,6.11,14.02,6.11,14.02,0,0,2.55,7.15,8.43,9.83Z"/>
      </g>
      <path class="cls-3" d="m110.96,55.1c-.07-10.77-3.22-20.8-8.6-29.29-4.15-6.54-9.61-12.15-16.04-16.46-4.91-3.29-10.37-5.8-16.21-7.4C65.6.73,60.87.06,55.98.01c-.17,0-.33-.01-.5-.01-14,0-26.77,5.2-36.53,13.75,7.95-4.4,17.08-6.91,26.81-6.91.17,0,.33.01.5.01,4.89.04,9.62.72,14.13,1.95,5.84,1.59,11.3,4.11,16.21,7.4,6.42,4.3,11.89,9.92,16.04,16.46,5.38,8.48,8.53,18.52,8.6,29.29,0,.13,0,.26,0,.39,0,16.65-7.34,31.57-18.95,41.74,17.09-9.46,28.67-27.66,28.67-48.58,0-.13,0-.26,0-.39Z"/>
    </g>
  </g>
</svg>