<?xml version="1.0" encoding="UTF-8"?>
<svg id="Calque_2" data-name="Calque 2" xmlns="http://www.w3.org/2000/svg" viewBox="0 0 88.05 86.88">
  <defs>
    <style>
      .cls-1, .cls-2 {
        stroke-width: 0px;
      }

      .cls-1, .cls-3 {
        fill: #f15d46;
      }

      .cls-2 {
        fill: #fff;
      }

      .cls-3 {
        font-family: Bahnschrift-SemiBold, Bahnschrift;
        font-size: 36px;
        font-variation-settings: 'wght' 600, 'wdth' 100;
        font-weight: 600;
      }
    </style>
  </defs>
  <g id="Calque_1-2" data-name="Calque 1">
    <g id="Page_404" data-name="Page 404">
      <path id="Rectangle_bas" data-name="Rectangle bas" class="cls-2" d="m4.04,36.16h79.83c2.23,0,4.04,1.81,4.04,4.04v46.68H0v-46.68c0-2.23,1.81-4.04,4.04-4.04Z" transform="translate(87.91 123.04) rotate(180)"/>
      <text class="cls-3" transform="translate(13.2 75.06)"><tspan x="0" y="0">404</tspan></text>
      <g id="Partie_haute" data-name="Partie haute">
        <path id="Rectangle_haut" data-name="Rectangle haut" class="cls-2" d="m4.17,0h79.83C86.24,0,88.05,1.81,88.05,4.04v24.39H.13V4.04C.13,1.81,1.94,0,4.17,0Z"/>
        <rect id="Barre" class="cls-1" x="11.32" y="14.55" width="36.26" height="6.31" rx="2.36" ry="2.36"/>
        <g id="Croix">
          <g>
            <rect class="cls-1" x="60.68" y="14.55" width="18.13" height="6.31" rx="2.36" ry="2.36" transform="translate(7.91 54.5) rotate(-45)"/>
            <rect class="cls-1" x="66.59" y="8.64" width="6.31" height="18.13" rx="2.36" ry="2.36" transform="translate(7.91 54.5) rotate(-45)"/>
          </g>
        </g>
      </g>
    </g>
  </g>
</svg>