<?xml version="1.0" encoding="UTF-8"?>
<svg id="Calque_2" data-name="Calque 2" xmlns="http://www.w3.org/2000/svg" viewBox="0 0 41.72 40.79">
  <defs>
    <style>
      .cls-1 {
        fill: #e4c5bd;
      }

      .cls-1, .cls-2, .cls-3, .cls-4, .cls-5, .cls-6, .cls-7, .cls-8, .cls-9, .cls-10, .cls-11 {
        stroke-width: 0px;
      }

      .cls-2 {
        fill: #463f76;
      }

      .cls-12 {
        fill: none;
        stroke: #fabd29;
        stroke-miterlimit: 10;
        stroke-width: 2px;
      }

      .cls-3 {
        fill: #fabd29;
      }

      .cls-4 {
        fill: #f39d96;
      }

      .cls-5 {
        fill: #dddee4;
      }

      .cls-6 {
        fill: #ace6bf;
      }

      .cls-7 {
        fill: #fcd684;
      }

      .cls-8 {
        fill: #f6f8f9;
      }

      .cls-9 {
        fill: #dce2dc;
      }

      .cls-10 {
        fill: #7ace91;
      }

      .cls-11 {
        fill: #e3e4e7;
      }
    </style>
  </defs>
  <g id="Calque_1-2" data-name="Calque 1">
    <g id="Feuille_clé" data-name="Feuille clé">
      <g id="Feuille">
        <rect class="cls-9" x="5.4" width="31.09" height="40.79"/>
        <rect class="cls-8" x="7.48" y="4.66" width="26.94" height="33.89"/>
        <rect class="cls-2" x="9.46" y="6.64" width="22.98" height="4.72"/>
        <g>
          <g>
            <rect class="cls-7" x="7.48" y="1.69" width=".99" height=".99"/>
            <rect class="cls-1" x="8.47" y="1.69" width=".99" height=".99"/>
            <rect class="cls-4" x="9.46" y="1.69" width=".99" height=".99"/>
            <rect class="cls-1" x="10.45" y="1.69" width=".99" height=".99"/>
            <rect class="cls-10" x="11.44" y="1.69" width=".99" height=".99"/>
          </g>
          <g>
            <rect class="cls-1" x="7.48" y="2.68" width=".99" height=".99"/>
            <rect class="cls-11" x="8.47" y="2.68" width=".99" height=".99"/>
            <rect class="cls-1" x="9.46" y="2.68" width=".99" height=".99"/>
            <rect class="cls-5" x="10.45" y="2.68" width=".99" height=".99"/>
            <rect class="cls-6" x="11.44" y="2.68" width=".99" height=".99"/>
          </g>
        </g>
        <rect class="cls-11" x="9.46" y="12.36" width="11.31" height="2.11"/>
        <rect class="cls-11" x="9.46" y="21.18" width="11.31" height="2.11"/>
        <rect class="cls-11" x="9.46" y="16.77" width="22.98" height="2.11"/>
        <rect class="cls-11" x="9.46" y="34.4" width="17.17" height="2.11"/>
        <rect class="cls-11" x="9.46" y="29.99" width="22.98" height="2.11"/>
        <rect class="cls-11" x="9.46" y="25.59" width="21.32" height="2.11"/>
      </g>
      <g id="Clé">
        <circle class="cls-12" cx="32.75" cy="21.18" r="7.97"/>
        <rect class="cls-3" x="0" y="20.02" width="25.26" height="2.21" rx="1.1" ry="1.1"/>
        <rect class="cls-3" x="1.32" y="22.23" width="2.04" height="4.71"/>
        <rect class="cls-3" x="7.45" y="22.23" width="2.04" height="4.71"/>
        <rect class="cls-3" x="3.36" y="22.23" width="2.04" height="3.48"/>
      </g>
    </g>
  </g>
</svg>