<?xml version="1.0" encoding="UTF-8"?>
<svg id="Calque_2" data-name="Calque 2" xmlns="http://www.w3.org/2000/svg" viewBox="0 0 63.32 49.87">
  <defs>
    <style>
      .cls-1 {
        fill: #463f76;
      }

      .cls-1, .cls-2, .cls-3, .cls-4 {
        stroke-width: 0px;
      }

      .cls-2 {
        fill: #3c6;
      }

      .cls-3 {
        fill: #fabd29;
      }

      .cls-4 {
        fill: #dbf0f6;
      }
    </style>
  </defs>
  <g id="Calque_1-2" data-name="Calque 1">
    <g id="Mot-clé">
      <rect class="cls-4" x="0" y=".09" width="63.32" height="49.79" rx="5.04" ry="5.04"/>
      <path class="cls-2" d="m5.04,0h53.23C61.06,0,63.32,2.26,63.32,5.04v1.43H0v-1.43C0,2.26,2.26,0,5.04,0Z"/>
      <path class="cls-2" d="m5.04,43.4h53.23c2.78,0,5.04,2.26,5.04,5.04v1.43H0v-1.43C0,45.66,2.26,43.4,5.04,43.4Z" transform="translate(63.32 93.28) rotate(-180)"/>
      <g>
        <path class="cls-1" d="m0,43.4v1.43C0,47.6,2.27,49.87,5.04,49.87h26.62v-6.47H0Z"/>
        <path class="cls-1" d="m31.66,6.47V0s-26.62,0-26.62,0C2.27,0,0,2.27,0,5.04v1.43s31.66,0,31.66,0Z"/>
      </g>
      <g>
        <rect class="cls-2" x="5.62" y="15.7" width="25.28" height="1.15"/>
        <rect class="cls-2" x="5.62" y="28.07" width="25.28" height="1.15"/>
        <rect class="cls-2" x="5.62" y="21.89" width="18.89" height="1.15"/>
        <rect class="cls-2" x="5.62" y="34.26" width="13.83" height="1.15"/>
      </g>
      <g>
        <rect class="cls-2" x="4.34" y="1.99" width="2.48" height="2.48"/>
        <rect class="cls-2" x="9.08" y="1.99" width="2.48" height="2.48"/>
        <rect class="cls-2" x="13.82" y="1.99" width="2.48" height="2.48"/>
      </g>
      <path class="cls-3" d="m53.96,15.64c0-3.71-3.01-6.72-6.72-6.72s-6.72,3.01-6.72,6.72c0,2.81,1.72,5.21,4.17,6.22v17.02l1.66,2.17h.89l.98-1.11v-.77h1.06v-1.15l1.02-.47-.85-.77-.09-.77-.94-.09.04-1.96h.77l.04-.98,1.02-.47-.98-.85v-.68h-1.06v-2.99h1.06v-1.01l.98-.43-1.02-1.06v-3.47c2.71-.86,4.68-3.4,4.68-6.41Zm-6.68-.57c-1.02,0-1.85-.83-1.85-1.85s.83-1.85,1.85-1.85,1.85.83,1.85,1.85-.83,1.85-1.85,1.85Z"/>
    </g>
  </g>
</svg>