<?xml version="1.0" encoding="UTF-8"?>
<svg id="Calque_2" data-name="Calque 2" xmlns="http://www.w3.org/2000/svg" viewBox="0 0 57.98 56.74">
  <defs>
    <style>
      .cls-1 {
        fill: none;
        stroke: #fff;
        stroke-miterlimit: 10;
      }

      .cls-2 {
        fill: #f3ae13;
      }

      .cls-2, .cls-3, .cls-4, .cls-5 {
        stroke-width: 0px;
      }

      .cls-3 {
        fill: #fff;
      }

      .cls-4 {
        fill: #fabd2b;
      }

      .cls-5 {
        fill: #e5ebf3;
      }
    </style>
  </defs>
  <g id="Calque_1-2" data-name="Calque 1">
    <g id="Avion_en_papier_en_vol" data-name="Avion en papier en vol">
      <g id="Avion_en_papier" data-name="Avion en papier">
        <polygon class="cls-3" points="33.56 13.3 57.98 0 13.45 15.24 33.56 13.36 33.56 13.3"/>
        <polygon class="cls-3" points="38.52 16.44 38.68 16.34 48.61 32.31 49.31 33.37 57.98 0 38.52 16.44"/>
        <polygon class="cls-4" points="27.07 36.68 27.82 35.79 27.06 36.66 27.07 36.68"/>
        <polygon class="cls-4" points="48.82 32.66 48.61 32.31 48.36 31.94 48.61 32.31 38.68 16.34 38.52 16.44 36 18.57 33.09 20.57 33.56 13.36 13.45 15.24 11.27 15.98 23.87 19.59 32.64 14.26 32.47 21.19 28.81 23.66 26.2 32.05 27.06 36.66 27.82 35.79 35.78 26.29 48.82 32.66"/>
        <polygon class="cls-2" points="32.47 21.19 32.64 14.26 23.87 19.59 23.88 19.6 26.2 32.05 28.81 23.66 32.47 21.19"/>
        <polygon class="cls-5" points="33.56 13.36 33.58 13.36 33.75 19.32 38.52 16.44 57.98 0 33.56 13.3 33.56 13.36"/>
        <polygon class="cls-5" points="33.58 13.36 33.56 13.36 33.09 20.57 36 18.57 38.52 16.44 33.75 19.32 33.58 13.36"/>
      </g>
      <g id="Effet_de_vol" data-name="Effet de vol">
        <line id="Ligne_de_vol" data-name="Ligne de vol" class="cls-1" x1=".34" y1="42.37" x2="20.12" y2="24.37"/>
        <line id="Ligne_de_vol-2" data-name="Ligne de vol" class="cls-1" x1="24" y1="56.4" x2="42.18" y2="36.77"/>
        <line id="Ligne_de_vol-3" data-name="Ligne de vol" class="cls-1" x1="12.16" y1="50.77" x2="23.87" y2="39.4"/>
      </g>
    </g>
  </g>
</svg>