<?xml version="1.0" encoding="UTF-8"?>
<svg id="Calque_2" data-name="Calque 2" xmlns="http://www.w3.org/2000/svg" viewBox="0 0 92.9 97.53">
  <defs>
    <style>
      .cls-1 {
        fill: #8b7e98;
      }

      .cls-1, .cls-2, .cls-3, .cls-4 {
        stroke-width: 0px;
      }

      .cls-2 {
        fill: #fff;
      }

      .cls-3 {
        fill: #fabd29;
      }

      .cls-4 {
        fill: #b4b3c4;
      }

      .cls-5 {
        fill: none;
        stroke: #ddd8d2;
        stroke-miterlimit: 10;
        stroke-width: 5px;
      }
    </style>
  </defs>
  <g id="Calque_1-2" data-name="Calque 1">
    <g>
      <rect class="cls-1" x="57.28" y="19.85" width="11.87" height="6.06"/>
      <rect class="cls-1" x="18.92" y="19.85" width="11.87" height="6.06"/>
      <rect class="cls-1" x="6.5" y="32.09" width="11.87" height="6.06" transform="translate(-22.69 47.56) rotate(-90)"/>
      <rect class="cls-1" x="6.5" y="71.07" width="11.87" height="6.06" transform="translate(-61.67 86.54) rotate(-90)"/>
      <g>
        <rect class="cls-2" x="29.28" y="22.88" width="29.45" height="9.27"/>
        <rect class="cls-3" x="29.28" y="13.61" width="29.45" height="9.27"/>
      </g>
      <g>
        <path class="cls-3" d="m92.9.19v22.14h-2.81s-22.34-.13-22.34-.13c.08-12.21,10.14-22.2,22.34-22.2.95,0,1.89.06,2.81.19Z"/>
        <path class="cls-2" d="m92.9,22.34v22.15c-.92.13-1.86.19-2.81.19-12.26,0-22.35-10.09-22.35-22.34v-.06l22.35.06h2.81Z"/>
      </g>
      <g>
        <rect class="cls-3" x="3.75" y="39.29" width="17.7" height="15.49"/>
        <rect class="cls-2" x="3.75" y="54.78" width="17.7" height="15.49"/>
      </g>
      <g>
        <path class="cls-2" d="m12.6,22.88l-7.72.03s0-.02,0-.03c0-4.24,3.49-7.72,7.72-7.72s7.72,3.49,7.72,7.72h-7.72Z"/>
        <path class="cls-4" d="m12.6,22.91h7.72c0,4.24-3.49,7.72-7.72,7.72s-7.71-3.47-7.72-7.69l7.72-.03Z"/>
      </g>
      <path id="Main" class="cls-5" d="m3.86,96.33s-6.41-11.76,8.57-15.17c13.62,3.32,10.48,11.83,8.94,15.11"/>
    </g>
  </g>
</svg>