<?xml version="1.0" encoding="UTF-8"?>
<svg id="Calque_2" data-name="Calque 2" xmlns="http://www.w3.org/2000/svg" viewBox="0 0 60.07 76.87">
  <defs>
    <style>
      .cls-1 {
        fill: #463f76;
        stroke-width: 0px;
      }

      .cls-2 {
        fill: none;
        stroke: #fff;
        stroke-miterlimit: 10;
        stroke-width: 3px;
      }
    </style>
  </defs>
  <g id="Calque_1-2" data-name="Calque 1">
    <g id="Cadenas">
      <g>
        <rect class="cls-1" x="5.58" y="24.57" width="48.91" height="46.3" transform="translate(-12.34 10.53) rotate(-16.54)"/>
        <path class="cls-1" d="m16.83.61l-1.44.43C7.61,3.35,3.13,11.6,5.44,19.38l3.14,10.56,5.77-1.71-3.06-10.31c-1.39-4.68,1.3-9.65,5.99-11.04l1.16-.34c4.68-1.39,9.65,1.3,11.04,5.99l3.06,10.31,5.77-1.71-3.14-10.56C32.86,2.77,24.61-1.7,16.83.61Z"/>
      </g>
      <g id="Maille">
        <path class="cls-2" d="m19.25,53.69l-5.65-1.26c-4.04-.9-6.58-4.82-5.65-8.71h0c.93-3.89,4.99-6.34,9.03-5.44l5.65,1.26c4.04.9,6.58,4.82,5.65,8.71h0c-.93,3.89-4.99,6.34-9.03,5.44Z"/>
        <path class="cls-2" d="m43.76,59.38l-5.65-1.26c-4.04-.9-6.58-4.82-5.65-8.71h0c.93-3.89,4.99-6.34,9.03-5.44l5.65,1.26c4.04.9,6.58,4.82,5.65,8.71h0c-.93,3.89-4.99,6.34-9.03,5.44Z"/>
        <rect class="cls-2" x="20.64" y="48.54" width="18.75" height=".09" transform="translate(11.71 -5.51) rotate(13.01)"/>
      </g>
    </g>
  </g>
</svg>