<?xml version="1.0" encoding="UTF-8"?>
<svg id="Calque_2" data-name="Calque 2" xmlns="http://www.w3.org/2000/svg" viewBox="0 0 37.3 33.98">
  <defs>
    <style>
      .cls-1 {
        fill: #d63e25;
      }

      .cls-1, .cls-2, .cls-3, .cls-4, .cls-5 {
        stroke-width: 0px;
      }

      .cls-2 {
        fill: #a4c0cf;
      }

      .cls-3 {
        fill: #f2958e;
      }

      .cls-4 {
        fill: #b8d3e0;
      }

      .cls-5 {
        fill: #f8c1a2;
      }
    </style>
  </defs>
  <g id="Calque_1-2" data-name="Calque 1">
    <g id="Petit_site" data-name="Petit site">
      <g>
        <rect class="cls-4" y="2.31" width="37.3" height="31.67" rx="3.21" ry="3.21"/>
        <path class="cls-5" d="m0,8.88h37.3v21.89c0,1.78-1.44,3.22-3.22,3.22H3.22c-1.78,0-3.22-1.44-3.22-3.22V8.88h0Z"/>
      </g>
      <g>
        <rect class="cls-2" x="24.53" y="4.87" width="1.9" height="1.9" rx=".95" ry=".95"/>
        <rect class="cls-2" x="28.25" y="4.87" width="1.9" height="1.9" rx=".95" ry=".95"/>
        <rect class="cls-2" x="31.97" y="4.87" width="1.9" height="1.9" rx=".95" ry=".95"/>
      </g>
      <g>
        <path class="cls-1" d="m14.29,8.88H4.54s0-7.97,0-7.97c0-.5.45-.91,1-.91h7.75c.55,0,1,.41,1,.91v7.97Z"/>
        <rect class="cls-3" x="6.65" y="2.27" width="5.52" height="2.6" rx="1.3" ry="1.3"/>
      </g>
      <g>
        <rect class="cls-1" x="3.54" y="13.04" width="8.91" height="2.71" rx="1.35" ry="1.35"/>
        <rect class="cls-1" x="15.44" y="13.04" width="18.32" height="2.71" rx="1.35" ry="1.35"/>
        <rect class="cls-1" x="4.47" y="18.46" width="28.86" height="11.36" rx="2.17" ry="2.17"/>
      </g>
    </g>
  </g>
</svg>